<?xml version="1.0" encoding="utf-8" ?><svg xmlns="http://www.w3.org/2000/svg" xmlns:xlink="http://www.w3.org/1999/xlink" width="512" height="512" viewBox="0 0 512 512"><path d="M307.914 161.83C330.153 160.75 349.06 177.895 350.153 200.134C351.245 222.372 334.109 241.288 311.872 242.392C289.617 243.497 270.684 226.346 269.591 204.091C268.497 181.836 285.659 162.912 307.914 161.83Z"/><path d="M307.599 269.637C329.798 268.384 348.822 285.334 350.13 307.529C351.438 329.724 334.536 348.791 312.344 350.154C290.074 351.521 270.926 334.547 269.614 312.274C268.301 290.001 285.323 270.895 307.599 269.637Z"/><path d="M200.095 161.834C222.28 160.741 241.172 177.794 242.349 199.974C243.527 222.155 226.547 241.112 204.371 242.374C182.075 243.644 162.992 226.552 161.808 204.25C160.624 181.949 177.79 162.933 200.095 161.834Z"/><path d="M199.787 269.64C221.994 268.376 241.031 285.331 242.336 307.535C243.64 329.74 226.72 348.808 204.519 350.153C182.259 351.502 163.131 334.529 161.823 312.267C160.515 290.005 177.523 270.908 199.787 269.64Z"/><path d="M200.93 390.863C215.726 390.227 228.245 401.686 228.917 416.481C229.59 431.275 218.161 443.822 203.369 444.531C188.525 445.242 175.925 433.765 175.25 418.919C174.575 404.074 186.083 391.502 200.93 390.863Z"/><path d="M93.1584 390.862C107.941 390.239 120.444 401.688 121.122 416.469C121.799 431.249 110.396 443.795 95.6184 444.527C80.763 445.263 68.1377 433.787 67.4566 418.929C66.7755 404.071 78.298 391.488 93.1584 390.862Z"/><path d="M198.891 67.6471C213.65 65.8812 227.037 76.4372 228.761 91.2008C230.486 105.964 219.892 119.322 205.124 121.005C190.414 122.681 177.121 112.139 175.403 97.4335C173.686 82.7284 184.191 69.4061 198.891 67.6471Z"/><path d="M92.4775 283.106C107.226 282.109 120.008 293.216 121.079 307.959C122.15 322.702 111.107 335.54 96.3696 336.684C81.5273 337.837 68.5785 326.699 67.4999 311.851C66.4213 297.003 77.6244 284.11 92.4775 283.106Z"/><path d="M308.73 390.867C323.529 390.24 336.042 401.71 336.7 416.507C337.359 431.304 325.915 443.842 311.119 444.532C296.279 445.224 283.696 433.738 283.035 418.896C282.375 404.055 293.888 391.496 308.73 390.867Z"/><path d="M306.683 67.6463C321.447 65.884 334.833 76.4511 336.546 91.2203C338.259 105.99 327.648 119.34 312.873 121.005C298.167 122.661 284.892 112.11 283.187 97.4101C281.482 82.71 291.989 69.4003 306.683 67.6463Z"/><path d="M91.8792 175.365C106.619 174.037 119.656 184.883 121.031 199.619C122.406 214.355 111.601 227.427 96.8695 228.848C82.0716 230.276 68.9286 219.412 67.5475 204.61C66.1663 189.807 77.0725 176.699 91.8792 175.365Z"/><path d="M415.288 175.363C429.998 174.058 443.002 184.874 444.399 199.575C445.796 214.276 435.062 227.347 420.37 228.837C405.546 230.339 392.333 219.489 390.924 204.656C389.514 189.824 400.447 176.679 415.288 175.363Z"/><path d="M415.859 283.109C430.58 282.119 443.344 293.189 444.445 307.902C445.546 322.615 434.573 335.461 419.868 336.674C405.007 337.899 391.992 326.782 390.879 311.911C389.766 297.041 400.981 284.11 415.859 283.109Z"/><path d="M416.525 390.868C431.282 390.243 443.774 401.651 444.487 416.404C445.2 431.157 433.866 443.716 419.118 444.518C404.245 445.326 391.555 433.875 390.836 418.997C390.117 404.119 401.643 391.498 416.525 390.868Z"/><path d="M91.089 67.6527C105.79 65.8877 119.146 76.3544 120.947 91.0512C122.748 105.748 112.314 119.13 97.6213 120.966C82.8783 122.809 69.4405 112.331 67.6335 97.5835C65.8266 82.836 76.3372 69.4238 91.089 67.6527Z"/><path d="M414.488 67.6476C429.208 65.8958 442.563 76.4031 444.325 91.1221C446.087 105.841 435.589 119.204 420.871 120.976C406.139 122.75 392.761 112.239 390.997 97.506C389.233 82.7726 399.753 69.4012 414.488 67.6476Z"/><path d="M306.84 0L312.7 0C313.52 0.531868 315.197 1.17045 316.177 1.69007C329.958 8.9974 321.968 29.7191 307.139 26.6584C303.494 25.8775 300.33 23.6341 298.387 20.4533C294.518 14.0936 296.504 5.95956 302.821 2.08711C304.151 1.27138 305.473 0.73767 306.84 0Z"/><path d="M512 204.702C509.906 208.509 509.582 211.24 504.888 213.985C501.972 215.685 498.49 216.124 495.243 215.201C491.501 214.179 488.347 211.658 486.526 208.232C483.06 201.749 486.041 193.224 492.575 190.034C495.915 188.42 499.769 188.244 503.242 189.545C508.537 191.543 509.938 194.934 512 199.535L512 204.702Z"/><path d="M199.081 0L204.91 0C208.114 1.9748 210.511 1.78927 213.306 6.04745C215.348 9.16577 216.017 12.9871 215.155 16.6137C214.333 20.1472 212.07 23.0585 209.008 24.9462C205.918 26.8722 202.166 27.4241 198.653 26.4692C190.794 24.3835 187.182 16.6651 189.35 9.17708C190.91 3.78797 194.846 2.3586 199.081 0Z"/><path d="M0 199.252C0.697978 198.026 1.2349 196.743 1.90098 195.476C7.50163 184.826 23.846 187.278 26.5634 199.082C27.381 202.669 26.677 206.434 24.6187 209.483C18.4785 218.584 5.91838 217.201 1.38117 207.902C0.979746 207.079 0.450493 205.672 0 204.98L0 199.252Z"/><path d="M512 312.463C509.837 316.283 510.21 318.405 505.373 321.432C502.356 323.323 498.69 323.878 495.249 322.965C491.614 322.007 488.527 319.609 486.698 316.325C483.103 309.876 485.802 301.211 492.362 297.905C495.687 296.252 499.539 296.011 503.044 297.238C508.39 299.118 509.936 302.789 512 307.288L512 312.463Z"/><path d="M0 307.001L0.110065 306.815C0.782532 305.659 1.3351 304.329 1.99416 303.092C7.53039 292.707 23.7346 295.066 26.4828 306.603C27.3458 310.219 26.6919 314.031 24.673 317.152C18.7856 326.184 6.18311 325.137 1.45874 315.874C0.971502 314.919 0.542698 313.585 0 312.744L0 307.001Z"/><path d="M307.074 512C302.762 509.845 299.063 508.258 297.155 503.11C295.909 499.746 296.369 495.349 298.033 492.187C299.651 489.077 302.454 486.751 305.809 485.733C309.369 484.669 313.208 485.08 316.463 486.872C319.562 488.554 321.845 491.422 322.79 494.819C323.839 498.661 323.224 502.044 321.299 505.573C318.891 509.99 315.897 509.815 312.662 512L307.074 512Z"/><path d="M199.3 512C194.99 509.721 191.179 508.412 189.319 502.913C188.175 499.532 188.747 494.78 190.524 491.684C192.259 488.66 195.14 486.464 198.515 485.594C202.138 484.658 205.984 485.226 209.182 487.168C212.176 488.958 214.324 491.877 215.145 495.267C215.996 498.803 215.393 502.532 213.472 505.62C211.856 508.17 210.058 509.596 207.329 510.848C206.608 511.179 205.37 511.615 204.779 512L199.3 512Z"/></svg>