<?xml version="1.0" encoding="utf-8" ?><svg xmlns="http://www.w3.org/2000/svg" xmlns:xlink="http://www.w3.org/1999/xlink" width="512" height="512" viewBox="0 0 512 512"><path d="M245.042 0L267.686 0C268.986 0.767726 270.734 1.14781 272.189 1.63423C285.014 5.92203 291.441 13.9753 299.103 24.3566L309.897 38.9673L345.624 87.3113L401.538 162.969C415.5 181.849 431.533 201.745 442.084 222.541C465.564 268.277 469.687 321.528 453.527 370.333C436.744 421.706 400.191 464.28 351.948 488.642C302.073 513.862 240.587 517.924 187.607 500.487C136.829 484.016 94.7888 447.849 70.9185 400.1C47.6855 354.3 43.6393 301.135 59.6734 252.347C64.5087 237.762 71.0349 223.794 79.1188 210.727C83.6587 203.398 88.2434 197.276 93.2998 190.324L110.829 166.21L167.61 88.0484L203.508 38.6466L214.049 24.1018C220.957 14.5768 226.81 6.94781 238.232 2.52987C240.342 1.71355 243.12 1.04033 245.042 0ZM259.062 480.886C272.414 480.505 283.186 479.503 296.383 476.654C330.252 469.338 361.18 452.111 385.231 427.167C416.95 393.605 434.431 350.81 433.065 304.428C432.196 280.991 426.289 258.016 415.748 237.065C408.466 222.508 401.875 213.948 392.368 201.084L374.017 176.264L310.11 89.7983L280.219 49.3683C276.326 44.1537 272.518 38.363 268.179 33.5756C265.073 30.1487 258.72 28.6756 254.286 29.3339C249.179 29.9422 245.799 31.7894 242.647 35.9091C239.669 39.8009 236.798 43.8587 233.922 47.8281L218.549 69.0211L170.93 134.557L131.156 189.305C116.506 209.467 102.456 226.381 92.7497 249.601C81.7699 275.759 77.8114 304.331 81.2657 332.49C86.8993 376.421 109.544 416.389 144.331 443.802C177.081 469.163 217.665 482.281 259.062 480.886Z"/><path d="M256.072 80.1029C267.399 79.8811 276.264 85.513 282.669 94.6429C286.151 99.607 290.159 104.815 293.781 109.716L321.219 146.822L360.535 200.018C373.919 218.13 387.892 234.86 396.943 255.566C405.74 275.562 409.561 297.393 408.078 319.188C405.601 357.427 386.146 394.028 357.486 419.168C335.344 437.733 311.569 449.025 282.904 453.901C276.46 454.997 260.068 456.895 253.805 455.67C251.641 455.26 249.595 454.374 247.813 453.079C239.945 447.355 241.562 437.707 241.562 429.006L241.571 404.898L241.589 320.365L241.623 170.264L241.624 121.303C241.622 112.719 241.493 104.097 241.683 95.5203C241.883 86.5041 247.359 81.1117 256.072 80.1029ZM271.551 424.99C298.981 421.542 323.786 410.769 343.553 391.089C364.847 369.515 378.464 340.27 378.221 309.69C378.118 294.062 374.606 278.644 367.93 264.513C360.668 249.118 348.583 234.389 338.373 220.58L298.911 167.193L280.272 141.942C278.904 140.09 272.705 131.284 271.591 130.863C271.823 136.762 271.661 143.362 271.66 149.326L271.656 182.574L271.647 284.116L271.637 377.605L271.633 407.981C271.632 413.335 271.794 419.733 271.551 424.99Z"/></svg>