<?xml version="1.0" encoding="UTF-8" standalone="no"?>
<svg
   width="32"
   height="32"
   inkscape:hotspot_x="3"
   inkscape:hotspot_y="3"
   style="fill:gray;stroke:black"
   version="1.1"
   id="svg16"
   sodipodi:docname="node.svg"
   inkscape:version="1.2.1 (9c6d41e410, 2022-07-14)"
   xmlns:inkscape="http://www.inkscape.org/namespaces/inkscape"
   xmlns:sodipodi="http://sodipodi.sourceforge.net/DTD/sodipodi-0.dtd"
   xmlns="http://www.w3.org/2000/svg"
   xmlns:svg="http://www.w3.org/2000/svg"
   xmlns:rdf="http://www.w3.org/1999/02/22-rdf-syntax-ns#"
   xmlns:cc="http://creativecommons.org/ns#"
   xmlns:dc="http://purl.org/dc/elements/1.1/">
  <style
     id="style2">@import './cursors.css';</style>
  <metadata
     id="metadata20">
    <rdf:RDF>
      <cc:Work
         rdf:about="">
        <dc:format>image/svg+xml</dc:format>
        <dc:type
           rdf:resource="http://purl.org/dc/dcmitype/StillImage" />
        <dc:title />
      </cc:Work>
    </rdf:RDF>
  </metadata>
  <sodipodi:namedview
     pagecolor="#ffffff"
     bordercolor="#666666"
     borderopacity="1"
     objecttolerance="10"
     gridtolerance="10"
     guidetolerance="10"
     inkscape:pageopacity="0"
     inkscape:pageshadow="2"
     inkscape:window-width="1857"
     inkscape:window-height="1177"
     id="namedview18"
     showgrid="true"
     inkscape:zoom="1.7456699"
     inkscape:cx="-82.776246"
     inkscape:cy="-41.817758"
     inkscape:window-x="1912"
     inkscape:window-y="-8"
     inkscape:window-maximized="1"
     inkscape:current-layer="cursor"
     inkscape:document-rotation="0"
     inkscape:showpageshadow="2"
     inkscape:pagecheckerboard="0"
     inkscape:deskcolor="#d1d1d1">
    <inkscape:grid
       type="xygrid"
       id="grid845"
       spacingx="2"
       spacingy="2" />
  </sodipodi:namedview>
  <defs
     id="defs9" />
  <!-- Triangle -->
  <g
     id="cursor"
     class="drop-shadow"
     style="stroke-linejoin:miter;stroke-miterlimit:10">
    <path
       d="m 5,5 12,8 -3.5,1 -1.5,4 z"
       style="stroke:#ffffff;stroke-width:3px"
       id="path11"
       sodipodi:nodetypes="ccccc" />
    <path
       d="m 5,5 12,8 -3.5,1 -1.5,4 z"
       style="stroke-width:1px;fill:#000000"
       id="path13"
       sodipodi:nodetypes="ccccc" />
    <!--
    <g
       id="cursor-9"
       style="display:none;fill:#808080;stroke:#000000;filter:url(#shadow-4)">
      <path
         d="M 4.5,4.5 12,12 H 8 l 3,7 -1,0.5 -3,-7 -2.5,2.5 z"
         style="stroke:#ffffff;stroke-width:3px"
         id="path11-3" />
      <path
         d="M 4.5,4.5 12,12 H 8 l 3,7 -1,0.5 -3,-7 -2.5,2.5 z"
         style="fill:#000000;stroke-width:1px"
         id="path13-7" />
    </g>
-->
    <path
       style="fill:none;stroke:#ffffff;stroke-linejoin:round;stroke-miterlimit:10;stroke-width:3;stroke-linecap:round"
       d="m 15.811095,18.496311 c -1.396312,-1.145693 -2.372635,-2.852934 -1.533381,-5.087607 1.361566,-3.6254285 5.473629,-4.9254252 9.011092,-3.8518806 5.544035,1.6824966 6.228209,6.9468116 4.443591,9.5716536 -2.454646,3.610329 -8.434648,3.105109 -9.580339,1.243359 -0.735882,-1.195808 -0.04746,-2.976275 1.50372,-2.434595 2.255582,0.787662 1.109889,8.270464 1.109889,8.270464"
       id="path1162"
       sodipodi:nodetypes="csssssc" />
    <path
       style="fill:none;stroke:#000000;stroke-width:1;stroke-linecap:round;stroke-linejoin:round"
       d="m 15.811095,18.496311 c -1.396312,-1.145693 -2.372635,-2.852934 -1.533381,-5.087607 1.361566,-3.6254285 5.473629,-4.9254252 9.011092,-3.8518806 5.544035,1.6824966 6.228209,6.9468116 4.443591,9.5716536 -2.454646,3.610329 -8.434648,3.105109 -9.580339,1.243359 -0.735882,-1.195808 -0.04746,-2.976275 1.50372,-2.434595 2.255582,0.787662 1.109889,8.270464 1.109889,8.270464"
       id="path270"
       sodipodi:nodetypes="csssssc" />
  </g>
</svg>
